<svg xmlns="http://www.w3.org/2000/svg" viewBox="0 0 1200 1000" width="1200" height="1000" role="img" aria-label="[IMAGE NEEDED]">
  <defs>
    <linearGradient id="g" x1="0" y1="0" x2="1" y2="1">
      <stop offset="0" stop-color="#7F69FF"/><stop offset="1" stop-color="#00929E"/>
    </linearGradient>
  </defs>
  <rect width="1200" height="1000" fill="#EFE9DF"/>
  <g stroke="url(#g)" stroke-width="3" fill="url(#g)" opacity="0.22" stroke-linecap="round">
<line x1="523" y1="350" x2="357" y2="132"/>
<line x1="523" y1="350" x2="777" y2="323"/>
<line x1="523" y1="350" x2="257" y2="308"/>
<line x1="523" y1="350" x2="479" y2="66"/>
<line x1="251" y1="778" x2="393" y2="886"/>
<line x1="851" y1="530" x2="862" y2="602"/>
<line x1="851" y1="530" x2="1105" y2="589"/>
<line x1="851" y1="530" x2="777" y2="323"/>
<line x1="357" y1="132" x2="176" y2="60"/>
<line x1="357" y1="132" x2="160" y2="267"/>
<line x1="357" y1="132" x2="257" y2="308"/>
<line x1="357" y1="132" x2="479" y2="66"/>
<line x1="176" y1="60" x2="160" y2="267"/>
<line x1="176" y1="60" x2="257" y2="308"/>
<line x1="176" y1="60" x2="479" y2="66"/>
<line x1="862" y1="602" x2="1105" y2="589"/>
<line x1="862" y1="602" x2="777" y2="323"/>
<line x1="632" y1="859" x2="393" y2="886"/>
<line x1="632" y1="859" x2="573" y2="859"/>
<line x1="160" y1="267" x2="257" y2="308"/>
<line x1="393" y1="886" x2="573" y2="859"/>
<circle cx="523" cy="350" r="10"/>
<circle cx="251" cy="778" r="8"/>
<circle cx="851" cy="530" r="8"/>
<circle cx="357" cy="132" r="10"/>
<circle cx="176" cy="60" r="10"/>
<circle cx="862" cy="602" r="10"/>
<circle cx="632" cy="859" r="6"/>
<circle cx="160" cy="267" r="10"/>
<circle cx="1105" cy="589" r="12"/>
<circle cx="777" cy="323" r="8"/>
<circle cx="393" cy="886" r="8"/>
<circle cx="257" cy="308" r="8"/>
<circle cx="479" cy="66" r="12"/>
<circle cx="573" cy="859" r="10"/>
  </g>
  <rect x="410.0" y="454.0" width="380" height="92" rx="14" fill="#FFFFFF" fill-opacity="0.88"/>
  <text x="600.0" y="492.0" text-anchor="middle" font-family="Georgia, serif" font-size="22" fill="#23262B">[IMAGE NEEDED]</text>
  <text x="600.0" y="524.0" text-anchor="middle" font-family="system-ui, sans-serif" font-size="15" fill="#5D6470">Well-child visit / family photo</text>
</svg>